<svg width="1536" height="1109" viewBox="0 0 1536 1109" fill="none" xmlns="http://www.w3.org/2000/svg">
<g opacity="0.64">
<mask id="mask0_2009_1232" style="mask-type:luminance" maskUnits="userSpaceOnUse" x="-52" y="-709" width="2382" height="2382">
<path d="M1139 1673C1796.77 1673 2330 1139.77 2330 482C2330 -175.771 1796.77 -709 1139 -709C481.229 -709 -52 -175.771 -52 482C-52 1139.77 481.229 1673 1139 1673Z" fill="white"/>
</mask>
<g mask="url(#mask0_2009_1232)">
<path d="M-157 111.802C-160.6 48.2025 -162.4 -17.1976 -145.6 -79.5976C-137.8 -108.398 -125.2 -136.598 -106 -159.998C-100.6 -166.598 -78.9999 -194.198 -70.5999 -186.998C-65.7999 -182.798 -63.3999 -167.198 -61.5999 -161.198C-58.5999 -151.598 -55.5999 -141.998 -53.1999 -132.398C-41.1999 -87.9975 -33.3999 -42.3976 -29.7999 3.20242C-28.5999 15.2024 -8.19992 29.0024 -5.19992 11.0024C5.60008 -48.9976 17.0001 -111.398 49.4001 -164.798C57.2001 -177.398 66.2001 -189.398 77.0001 -200.198C86.6001 -209.798 103.4 -228.398 118.4 -228.398C132.2 -228.398 132.2 -197.198 134 -187.598C137 -167.198 140 -147.398 143 -126.998C149 -80.7975 153.8 -34.5975 156.8 11.6025C157.4 23.6025 179 37.4024 181.4 19.4024C190.4 -44.7976 201.2 -112.598 235.4 -168.998C250.4 -194.198 276.2 -226.598 305.6 -236.198C327.2 -242.798 328.4 -215.798 331.4 -201.398C336.2 -178.598 340.4 -155.798 344 -132.998C351.8 -83.1976 357.2 -32.7975 359.6 17.0024C360.2 29.6024 379.4 42.2025 384.2 24.8025C395 -18.3975 410 -59.7976 428.6 -100.598C438.2 -120.998 448.4 -141.398 459.8 -161.198C468.8 -176.798 479.6 -198.398 497.6 -204.998C517.4 -212.198 525.2 -181.598 530.6 -168.398C539.6 -147.398 547.4 -125.798 555.2 -104.198C570.2 -60.3975 582.8 -15.9976 593 29.0024C594.8 37.4024 611.6 49.4024 615.8 36.2024C629.6 -8.19757 646.4 -51.3976 665.6 -93.9976C675.2 -114.998 685.4 -135.998 696.2 -156.398C704 -170.798 712.4 -189.998 728.6 -196.598C764.6 -210.398 783.8 -141.998 791.6 -119.798C807.8 -76.5976 819.2 -31.5975 827 14.0024C828.8 26.0024 846.8 39.8025 851.6 21.8025C865.4 -30.3975 881.6 -82.5975 900.8 -132.998C913.4 -167.198 927.8 -221.798 969.2 -231.398C964.4 -234.398 959.6 -237.398 954.8 -240.398C994.4 -171.398 1020.8 -95.7976 1032.2 -16.5976C1032.8 -10.5976 1036.4 -3.99756 1042.4 -0.997559C1047.2 1.40244 1053.8 0.202454 1055.6 -5.19754C1070 -42.9975 1086.8 -79.5975 1106.6 -114.398C1116.2 -131.798 1126.4 -148.598 1137.8 -164.798C1144.4 -174.398 1158.2 -194.198 1172.6 -187.598C1184.6 -182.198 1188.2 -161.798 1191.2 -150.998C1197.8 -130.598 1203.8 -109.598 1210.4 -89.1975C1223.6 -45.9975 1236.8 -3.39752 1250 39.8025C1253.6 51.2025 1269.8 59.0024 1274 44.0024C1301 -51.9976 1343 -143.798 1397.6 -227.198C1391 -227.198 1385 -227.198 1378.4 -227.198C1425.2 -161.198 1454.6 -83.1976 1464.2 -2.79758C1465.4 9.20242 1484 22.4024 1488.8 5.00244C1509.2 -71.7975 1532.6 -154.598 1598 -204.998C1591.4 -206.798 1584.8 -209.198 1578.2 -210.998C1605.8 -153.998 1623.8 -92.7976 1631.6 -29.7976C1632.2 -23.7976 1635.8 -17.1975 1641.8 -14.1975C1646.6 -12.3975 1653.2 -12.9975 1655 -18.3975C1679.6 -93.3975 1719.8 -161.198 1773.2 -219.398C1767.2 -220.598 1761.8 -221.198 1755.8 -222.398C1799.6 -159.398 1824.8 -85.5975 1830.2 -9.39752C1830.8 0.202484 1847 15.8024 1853.6 1.4024C1867.4 -29.1976 1880.6 -59.7975 1894.4 -90.3975C1901 -105.398 1907.6 -120.398 1914.2 -135.398C1919.6 -147.998 1924.4 -165.398 1934.6 -174.398C1956.8 -194.798 1973.6 -150.998 1979 -135.998C1989.8 -105.398 1998.2 -73.5976 2004.8 -41.7976C2006.6 -33.3976 2023.4 -21.3976 2027.6 -34.5976C2042.6 -82.5976 2064.8 -131.798 2096.6 -171.998C2099 -174.398 2104.4 -182.798 2108.6 -182.798C2111.6 -182.798 2109.2 -183.398 2111 -180.398C2112.2 -177.998 2112.2 -173.798 2112.8 -170.798C2115.8 -157.598 2118.2 -143.798 2121.2 -130.598C2127.2 -102.998 2132.6 -75.3976 2138.6 -47.7976C2140.4 -38.1976 2155.4 -29.1976 2161.4 -40.5976C2174 -64.5976 2188.4 -87.3976 2204.6 -108.998C2212.4 -119.798 2220.8 -129.998 2229.8 -140.198C2238.2 -149.798 2246.6 -159.998 2258 -165.398C2269.4 -170.798 2276.6 -167.198 2282.6 -156.398C2289.2 -144.398 2294.6 -132.398 2299.4 -119.798C2309 -93.3976 2315 -66.3976 2317.4 -38.7976C2318 -31.5976 2322.8 -23.7976 2330.6 -22.5976C2337.8 -21.3976 2342.6 -27.9976 2342 -34.5976C2339 -68.7976 2331.8 -101.798 2319.2 -132.998C2309.6 -156.998 2296.4 -195.998 2264.6 -197.198C2234.6 -198.398 2210.6 -163.598 2194.4 -142.598C2173.4 -116.198 2155.4 -87.9976 2139.8 -57.9976C2147.6 -55.5975 2154.8 -53.1976 2162.6 -50.7976C2155.4 -85.5976 2148.2 -120.398 2141 -155.198C2136.8 -175.598 2130.8 -219.998 2099 -210.398C2085.8 -206.198 2077.4 -193.598 2069.6 -182.798C2060.6 -169.598 2052.2 -156.398 2044.4 -142.598C2028.8 -113.798 2016.2 -83.7975 2006 -53.1975C2013.8 -50.7975 2021 -48.3976 2028.8 -45.9976C2021.6 -83.7975 2011.4 -121.598 1997 -156.998C1987.4 -180.398 1966.4 -212.798 1937 -208.598C1922.6 -206.798 1913 -195.998 1906.4 -183.998C1896.8 -166.598 1889.6 -147.398 1881.8 -129.398C1865 -92.1975 1848.8 -54.9976 1832 -17.7976C1839.8 -14.1976 1847.6 -10.5976 1855.4 -6.99756C1849.4 -91.5975 1820.6 -171.998 1772.6 -241.598C1769 -246.998 1760 -249.398 1755.2 -244.598C1700.6 -185.798 1658.6 -114.998 1634 -38.7976C1641.8 -35.1976 1649.6 -31.5975 1657.4 -27.9976C1649 -96.3976 1629.8 -162.398 1599.8 -224.198C1596.2 -231.998 1587.2 -235.598 1580 -230.198C1511 -176.798 1486.4 -88.5976 1465.4 -8.79758C1473.8 -6.39758 1481.6 -3.39755 1490 -0.997559C1479.8 -89.7975 1447.4 -173.798 1395.8 -246.998C1390.4 -254.198 1381.4 -254.198 1376.6 -246.998C1320.8 -161.198 1278.8 -67.5975 1251.2 30.8025C1259 32.0025 1266.8 33.8025 1275.2 35.0024C1260.2 -14.1976 1245.2 -63.3976 1230.2 -112.598C1223 -135.398 1217.6 -159.398 1208.6 -180.998C1202.6 -195.398 1192.4 -210.398 1177.4 -216.398C1137.8 -231.398 1111.4 -174.998 1096.4 -148.598C1072.4 -108.998 1052.6 -66.9976 1036.4 -23.7976C1044.2 -20.1976 1052 -16.5975 1059.8 -12.9976C1047.8 -96.9976 1020.8 -177.998 978.2 -251.798C975.8 -255.998 969.8 -261.998 963.8 -260.798C917 -249.998 899.6 -200.798 884.6 -160.598C863.6 -104.798 845.6 -47.7975 830 9.80246C838.4 12.2025 846.2 15.2025 854.6 17.6025C848 -23.1975 838.4 -62.7976 825.8 -101.798C814.4 -135.998 803 -174.998 779.6 -203.198C759.8 -227.198 728 -236.798 702.8 -213.998C690.8 -203.198 683 -186.998 675.8 -172.598C666.2 -153.998 657.2 -135.398 648.2 -116.198C628.4 -72.3975 611 -27.3976 596.6 18.2024C604.4 20.6024 611.6 23.0024 619.4 25.4024C610.4 -15.3976 599.6 -54.9976 586.4 -94.5976C579.8 -114.398 572.6 -134.798 564.8 -153.998C557.6 -171.998 551 -191.198 541.4 -207.998C533.6 -221.198 522.2 -233.198 506 -234.998C489.8 -236.798 476 -227.198 465.2 -216.398C452.6 -203.198 443.6 -185.798 434.6 -169.598C425 -152.198 416 -134.798 408.2 -116.798C389 -75.3976 374 -31.5975 362.6 12.8025C371 15.2025 378.8 18.2025 387.2 20.6025C384.8 -31.5975 379.4 -83.1975 371 -134.198C366.8 -159.398 362 -184.598 356.6 -209.798C352.4 -227.798 348.2 -248.198 332.6 -259.598C300.2 -283.598 257.6 -241.598 237.8 -217.598C213.8 -188.798 198.2 -154.598 186.8 -119.198C173.6 -77.7975 166.4 -35.1976 160.4 8.00244C168.8 10.4024 176.6 13.4025 185 15.8025C182 -32.1975 177.2 -80.1976 170.6 -127.598C167.6 -150.398 164 -173.798 159.8 -196.598C156.8 -214.598 154.4 -234.998 140 -247.598C110.6 -274.598 72.2001 -235.598 53.0001 -213.398C30.2001 -186.398 14.0001 -153.998 2.60008 -120.998C-10.5999 -81.9976 -18.9999 -41.1975 -26.1999 -0.397522C-17.7999 2.00247 -9.99989 5.00241 -1.5999 7.4024C-5.19991 -39.3976 -12.9999 -86.1975 -24.9999 -131.198C-30.9999 -152.798 -36.3999 -176.198 -45.9999 -196.598C-53.7999 -212.798 -69.9999 -223.598 -87.9999 -214.598C-104.2 -206.798 -117.4 -189.398 -127.6 -174.998C-138.4 -160.598 -146.8 -144.998 -154 -128.198C-167.8 -94.5975 -175 -59.1975 -178 -23.1975C-181.6 20.0025 -180.4 63.8025 -178 107.002C-181 123.202 -156.4 131.602 -157 111.802Z" fill="#F8F8FF"/>
</g>
<mask id="mask1_2009_1232" style="mask-type:luminance" maskUnits="userSpaceOnUse" x="-52" y="-709" width="2382" height="2382">
<path d="M1139 1673C1796.77 1673 2330 1139.77 2330 482C2330 -175.771 1796.77 -709 1139 -709C481.229 -709 -52 -175.771 -52 482C-52 1139.77 481.229 1673 1139 1673Z" fill="white"/>
</mask>
<g mask="url(#mask1_2009_1232)">
<path d="M-7.60037 382.401C-5.20037 318.201 1.39961 251.601 29.5996 193.401C52.9996 144.801 91.9996 102.201 143 82.4013C134.6 77.0013 126.2 71.6014 117.2 66.8014C140.6 147.201 159.2 228.201 173 311.001C174.2 316.401 198.8 326.001 198.8 326.601C210.8 252.201 239 181.401 281.6 119.601C273.2 114.801 264.8 109.401 256.4 104.601C295.4 166.401 319.4 236.001 327.8 308.601C328.4 312.801 353 325.401 353.6 324.201C367.4 288.801 381.2 252.801 401.6 221.001C411.8 205.401 423.2 190.401 436.4 177.801C448.4 166.401 471.2 144.801 489.8 152.001C485 149.001 480.2 146.601 474.8 143.601C471.8 141.801 476.6 148.401 476.6 148.401C477.8 150.201 478.4 152.601 479 154.401C482 162.801 484.4 171.201 486.8 180.201C491 195.201 494.6 210.201 497.6 225.201C503.6 255.801 507.8 286.401 509 317.001C509 322.401 534.8 332.001 534.8 332.601C541.4 296.601 552.2 261.201 567.8 228.201C575 212.001 583.4 196.401 592.4 181.401C600.8 167.601 609.2 153.201 622.4 143.601C629 138.801 636.2 134.601 644.6 134.601C646.4 134.601 648.2 134.601 649.4 134.601C657.2 137.001 655.4 135.201 644 129.801C644.6 131.601 649.4 136.401 650.6 138.201C659.6 152.001 664.4 168.801 669.2 184.401C682.4 224.001 695 263.601 708.2 303.201C709.4 307.401 733.4 319.401 734 318.801C743 281.601 756.2 246.201 774.2 212.601C782.6 196.401 792.2 180.801 802.4 165.201C812 150.801 822.8 134.601 836 123.201C839.6 120.201 843.2 117.801 847.4 116.601C849.2 116.001 851.6 115.401 853.4 116.001C841.4 107.001 837.8 105.201 842.6 111.201C846.2 119.001 851 126.801 854.6 134.601C863 152.601 870.8 170.601 877.4 188.601C891.8 228.201 901.4 269.001 907.4 310.401C908 315.201 933.2 326.001 933.2 326.001C942.2 291.201 953.6 256.401 968 223.401C980 195.201 992.6 161.601 1016 141.201C1020.8 137.001 1026.2 133.401 1032.2 131.001C1035.8 129.801 1039.4 128.601 1043.6 128.601C1045.4 128.601 1046.6 128.601 1048.4 128.601C1053.8 129.801 1052.6 128.601 1045.4 125.001C1046 127.401 1051.4 132.201 1053.2 134.601C1055 137.601 1056.8 140.601 1058.6 143.601C1062.8 150.801 1065.8 158.001 1069.4 165.201C1083.8 198.201 1092.2 233.001 1095.2 269.001C1095.8 273.801 1120.4 285.801 1121 284.601C1132.4 254.001 1144.4 224.001 1155.8 193.401C1163.6 173.001 1172 128.601 1200.8 129.801C1202.6 129.801 1209.8 131.601 1202.6 128.001C1205.6 129.801 1208 134.001 1210.4 136.401C1214.6 141.801 1218.2 147.801 1221.8 153.801C1229 165.801 1235.6 178.401 1241 191.601C1253 219.201 1260.8 248.601 1265.6 278.001C1266.2 282.201 1290.8 294.801 1291.4 293.601C1303.4 260.001 1317.2 227.001 1332.8 194.601C1340 179.001 1347.8 164.001 1356.2 149.001C1363.4 135.201 1371.2 122.001 1382.6 111.201C1387.4 107.001 1392.8 102.801 1398.8 100.401C1401.8 99.2013 1407.8 99.8014 1410.2 98.6014C1414.4 99.2014 1412.6 97.4014 1404.8 92.6014C1406.6 94.4014 1408.4 96.8014 1409.6 98.6014C1418.6 111.801 1422.8 128.601 1427.6 143.001C1438.4 177.801 1446.2 213.201 1450.4 249.201C1451 254.001 1475.6 265.401 1476.2 264.801C1485.2 233.601 1495.4 203.001 1508.6 173.001C1515.2 157.401 1522.4 142.401 1530.2 126.801C1536.2 114.801 1542.8 101.601 1553 92.6014C1557.8 88.4014 1564.4 84.8014 1571 84.8014C1572.8 84.8014 1574 84.8013 1575.8 85.4013C1580 86.0013 1578.2 84.8014 1569.8 81.8014C1569.8 83.0014 1574.6 88.4014 1575.2 89.6014C1583 101.601 1587.8 116.001 1592.6 129.801C1604.6 163.401 1614.2 198.201 1622 233.601C1622.6 237.801 1647.2 250.401 1647.8 249.201C1658 223.401 1668.2 197.001 1679 171.201C1683.8 159.201 1688 147.201 1693.4 135.201C1697 126.801 1702.4 117.201 1711.4 113.601C1712 113.601 1719.8 113.001 1719.8 112.401C1718.6 114.201 1709 102.801 1716.2 112.401C1719.2 116.601 1721.6 120.801 1723.4 125.601C1728.8 137.001 1733.6 149.001 1738.4 161.001C1749.2 187.401 1757.6 214.401 1765.4 241.401C1766.6 245.601 1790.6 257.601 1791.2 257.001C1808.6 194.001 1833.8 129.801 1870.4 75.2013C1874 69.8013 1878.2 64.4013 1883.6 61.4013C1884.8 60.8013 1894.4 57.2013 1893.8 58.4013C1893.2 60.2013 1879.4 45.2013 1887.8 58.4013C1896.8 72.2013 1904.6 86.6013 1911.8 101.001C1926.8 131.601 1937.6 163.401 1945.4 196.401C1946.6 200.601 1970.6 212.601 1971.2 212.001C1980.2 180.801 1992.2 150.801 2008.4 122.001C2023.4 95.6013 2041.4 65.0014 2065.4 45.8014C2070.8 41.6014 2076.8 37.4014 2083.4 35.6014C2085.8 35.0014 2088.2 34.4013 2090.6 35.0013C2095.4 35.6013 2093 33.8014 2082.8 29.6014C2083.4 31.4014 2086.4 36.2013 2087 38.0013C2093 54.2013 2095.4 72.8013 2099 90.2013C2107.4 127.401 2115.8 164.601 2124.2 201.801C2125.4 206.601 2149.4 218.001 2150 217.401C2159.6 183.201 2171.6 150.201 2186 118.401C2192 105.201 2198.6 90.8013 2210.6 82.4013C2216 78.2013 2222.6 75.8013 2229.8 75.2013C2232.8 75.2013 2235.8 75.2014 2238.2 75.8014C2238.8 75.8014 2246.6 78.2013 2244.2 77.0013C2255 83.0013 2263.4 100.401 2267.6 111.801C2273 126.201 2274.2 141.801 2275.4 157.401C2277.8 186.201 2279 215.001 2294 240.201C2297 245.001 2304.8 248.601 2309 251.001C2310.2 251.601 2319.8 255.801 2319.2 254.601C2300 221.601 2304.2 183.201 2298.2 146.601C2292.8 113.601 2273 90.2014 2244.8 72.8014C2233.4 65.6014 2219.6 58.4014 2205.8 59.6014C2189.6 60.8014 2178.2 71.6014 2169.8 84.8014C2148.2 120.201 2135 162.801 2124.2 202.401C2132.6 207.801 2141 213.201 2150 218.001C2140.4 174.801 2130.8 131.601 2120.6 88.4013C2117 73.4013 2115.8 53.0013 2105 41.0013C2096 31.4013 2079.2 20.0013 2066 20.0013C2049.8 19.4013 2036.6 33.2013 2027 44.0013C2014.4 58.4013 2003 74.0013 1992.8 90.2013C1971.8 123.201 1956.2 159.201 1945.4 197.001C1953.8 202.401 1962.2 207.801 1971.2 212.601C1962.8 175.401 1949.6 138.801 1931.6 105.201C1923.8 90.8013 1916.6 73.4013 1904.6 62.0013C1896.2 54.2013 1879.4 41.6014 1866.8 42.8014C1851.2 44.6014 1841.6 65.0013 1835 77.0013C1825.4 93.8013 1816.4 111.201 1808 128.601C1790.6 165.201 1776.8 203.001 1766.6 241.401C1775 246.801 1783.4 252.201 1792.4 257.001C1784 225.801 1773.8 195.201 1761.2 165.201C1755.8 152.001 1750.4 137.001 1741.4 125.601C1733.6 115.401 1722.8 108.201 1712 102.201C1703 97.4013 1693.4 93.8014 1683.8 99.8014C1673 106.401 1668.8 120.801 1664.6 132.201C1651.4 165.801 1637.6 200.001 1624.4 233.601C1632.8 239.001 1641.2 244.401 1650.2 249.201C1641.8 210.201 1631 171.201 1616.6 134.001C1611.2 119.601 1605.8 104.001 1594.4 92.6014C1584.8 83.0014 1570.4 73.4014 1557.2 69.8014C1523.6 60.8014 1505.6 113.001 1495.4 135.801C1478 172.401 1464.2 210.201 1453.4 249.201C1461.8 254.601 1470.2 260.001 1479.2 264.801C1473.8 222.801 1464.2 181.401 1450.4 141.201C1445 126.201 1439.6 110.601 1427 100.401C1416.2 92.0013 1400.6 81.2014 1386.2 81.8014C1351.4 83.0014 1332.8 133.401 1319.6 158.601C1300.4 197.001 1283.6 236.001 1269.2 276.801C1277.6 282.201 1286 287.601 1295 292.401C1289.6 257.601 1279.4 223.401 1264.4 191.601C1250 161.601 1233.8 137.601 1204.4 121.401C1193.6 115.401 1181.6 110.001 1169 114.801C1154.6 120.801 1149.2 137.601 1144.4 150.801C1129.4 189.801 1114.4 228.801 1099.4 267.801C1107.8 273.201 1116.2 278.601 1125.2 283.401C1122.2 243.201 1112 203.601 1094 167.001C1086.8 151.401 1077.8 138.201 1064 128.001C1052 119.601 1037 109.401 1022 111.201C987.2 114.801 969.2 159.201 956.6 186.201C938.6 225.801 924.2 266.601 913.4 308.601C921.8 314.001 930.2 319.401 939.2 324.201C934.4 288.801 926.6 254.001 915.2 219.801C905 188.001 893 153.201 875 125.001C867.8 114.201 855.8 107.001 844.4 101.601C831.2 95.0014 821 99.8013 811.4 110.001C789.2 134.601 771.2 163.401 755.6 192.201C737.6 226.401 723.8 263.001 714.8 300.201C723.2 305.601 731.6 311.001 740.6 315.801C725.6 270.201 711.2 224.001 695.6 178.401C690.8 164.001 684.8 149.001 673.4 138.201C662.6 128.001 646.4 117.201 631.4 114.801C612.8 112.401 597.8 125.601 587.6 139.401C575.6 155.001 566 173.001 557 190.401C537.2 229.401 523.4 270.801 515.6 313.401C524 318.801 532.4 324.201 541.4 329.001C539 283.401 531.8 238.401 519.8 194.001C515.6 179.001 512 159.201 500 147.801C489.2 138.201 472.4 127.401 457.4 131.001C440.6 135.201 424.4 150.201 412.4 162.201C400.4 174.801 389.6 188.601 380.6 203.601C361.4 234.801 347.6 269.601 334.4 303.801C342.8 309.201 351.2 314.601 360.2 319.401C351.8 246.801 327.2 176.601 288.2 114.201C286.4 111.801 264.8 96.8013 263 99.2013C213.8 165.201 185 235.401 173 309.801C181.4 315.201 189.8 320.601 198.8 325.401C185 243.201 166.4 161.601 143 81.2013C141.8 77.0013 122 63.8014 117.2 65.6014C66.1996 85.4014 27.1996 128.001 3.79961 176.601C-24.4004 235.401 -31.0004 301.401 -33.4004 365.601C-33.4004 368.601 -23.8004 373.401 -21.4004 375.201C-20.8004 376.401 -8.20037 382.401 -7.60037 382.401Z" fill="#F8F8FF"/>
</g>
<mask id="mask2_2009_1232" style="mask-type:luminance" maskUnits="userSpaceOnUse" x="-52" y="-709" width="2382" height="2382">
<path d="M1139 1673C1796.77 1673 2330 1139.77 2330 482C2330 -175.771 1796.77 -709 1139 -709C481.229 -709 -52 -175.771 -52 482C-52 1139.77 481.229 1673 1139 1673Z" fill="white"/>
</mask>
<g mask="url(#mask2_2009_1232)">
<path d="M-74.2003 629.601C-61.6003 527.601 4.39966 434.601 97.9997 391.401C90.7997 390.201 84.1997 388.401 76.9997 387.201C100.4 446.001 116 507.201 122.6 570.201C123.8 584.001 149 573.801 152 565.401C166.4 515.001 203 471.801 250.4 450.201C255.2 447.801 263 443.601 268.4 444.201C276.2 444.801 279.8 453.201 282.2 459.201C287.6 473.601 291.8 488.601 295.4 503.601C303.2 536.601 308 570.801 309.8 604.401C310.4 618.201 335 615.201 338 604.401C351.2 566.001 363.8 527.001 377 488.601C385.4 463.401 400.4 416.601 434.6 418.401C450.2 419.001 460.4 434.001 467 446.601C474.8 462.801 480.2 480.201 485.6 497.001C497.6 534.201 506 573.201 510.8 612.201C512.6 624.201 536 618.201 539 609.801C553.4 566.601 566.6 521.601 583.4 479.001C593.6 453.801 610.4 414.201 640.4 407.601C674.6 400.401 698 440.601 706.4 467.601C718.4 508.401 713 552.801 732.2 591.801C737.6 603.201 758.6 598.401 761.6 587.001C769.4 550.401 780.2 513.801 793.4 479.001C800.6 461.001 807.8 443.001 816.2 425.601C820.4 416.601 828.2 396.201 840.2 396.201C854.6 396.201 867.8 418.401 875 429.201C885.2 443.601 893.6 458.601 901.4 474.801C915.8 506.601 924.8 540.201 927.8 575.001C929 588.201 954.8 579.201 957.2 570.201C966.2 531.801 975.2 493.401 984.2 455.001C989.6 433.401 995 392.601 1019.6 383.001C1032.2 378.201 1045.4 387.801 1053.8 396.801C1064.6 408.801 1071.2 423.201 1074.8 438.801C1082 471.201 1080.8 504.201 1096.4 534.801C1101.2 544.401 1119.8 537.201 1123.4 530.001C1140.8 497.601 1141.4 460.401 1153.4 426.201C1161.8 401.601 1182.8 366.801 1214 375.801C1244 384.801 1259.6 420.201 1266.2 447.201C1274.6 481.401 1277.6 517.401 1297.4 548.001C1304 558.201 1322.6 549.801 1325.6 540.801C1336.4 503.001 1350.8 466.401 1368.8 431.601C1377.2 414.801 1386.2 398.601 1396.4 383.001C1401.8 374.601 1415.6 347.601 1429.4 352.401C1443.2 357.801 1451.6 382.401 1457 394.401C1464.2 411.801 1470.2 429.201 1475 447.201C1485.2 485.001 1491.2 523.401 1496.6 561.801C1498.4 575.001 1523.6 566.601 1526 557.001C1542.8 483.201 1578.8 414.801 1629.2 358.401C1620.8 359.001 1612.4 359.601 1604 360.801C1644.8 416.001 1670 481.401 1676.6 549.801C1677.8 563.001 1701.2 553.401 1704.8 547.401C1725.8 514.401 1732.4 476.001 1746.2 440.001C1758.2 410.601 1777.4 379.401 1811 372.801C1805.6 371.601 1800.2 370.401 1795.4 369.801C1821.8 417.201 1836.8 470.601 1838.6 524.601C1839.2 539.001 1867.4 534.801 1868 522.201C1871 466.401 1896.2 412.401 1938.2 375.801C1943 371.601 1947.8 367.401 1953.2 364.401C1961.6 359.601 1966.4 363.201 1971.8 370.401C1981.4 382.401 1988 398.001 1994 411.801C2006.6 441.201 2015 472.401 2019.2 503.601C2021 516.801 2046.2 507.801 2048.6 498.801C2060 451.401 2073.8 393.801 2114 362.001C2123.6 354.801 2138 342.201 2147.6 354.801C2156 366.801 2159.6 383.601 2164.4 397.401C2176.4 430.401 2188.4 464.001 2200.4 497.001C2205.2 509.601 2226.8 502.401 2229.8 492.201C2240.6 450.201 2262.2 413.001 2292.2 382.401C2284.4 383.601 2276.6 385.401 2268.8 386.601C2312 417.801 2336.6 470.001 2333 522.801C2331.8 537.201 2361.8 533.001 2362.4 520.401C2366 461.601 2339 404.601 2291 369.801C2284.4 365.001 2273 368.601 2267.6 374.001C2234.6 407.601 2211.2 449.001 2199.8 494.001C2209.4 492.201 2219 490.401 2229.2 489.201C2214.2 447.801 2199.2 406.401 2184.2 365.001C2179.4 351.201 2173.4 335.601 2158.4 329.601C2141.6 323.001 2123 330.801 2108.6 339.201C2052.2 372.801 2033.6 441.201 2019.2 500.601C2028.8 498.801 2038.4 497.001 2048.6 495.801C2043.2 456.201 2031.2 417.201 2013.2 381.801C2006 368.001 1998.8 351.801 1984.4 344.001C1968.2 335.601 1949.6 341.601 1935.2 351.201C1878.8 387.801 1843.4 458.001 1839.8 524.001C1849.4 523.401 1859.6 522.201 1869.2 521.601C1867.4 463.401 1851.8 407.601 1823.6 356.601C1820.6 351.801 1812.2 352.401 1808 353.601C1770.2 360.801 1743.2 390.801 1726.4 423.801C1707.2 462.801 1702.4 507.201 1679 544.401C1688.6 543.801 1697.6 542.601 1707.2 542.001C1700.6 471.801 1674.8 404.601 1632.8 348.201C1626.8 340.401 1613 344.601 1607.6 350.601C1554.2 410.001 1517 482.001 1499 559.401C1508.6 557.601 1518.2 555.801 1528.4 554.601C1521.8 509.001 1514.6 463.401 1500.8 419.001C1494.2 398.001 1485.8 377.001 1475 358.401C1466 342.201 1451.6 330.201 1432.4 331.401C1412.6 332.601 1396.4 345.801 1385 360.801C1371.8 378.201 1361 398.001 1350.2 417.201C1328.6 457.401 1311.8 499.401 1299.2 543.201C1308.8 540.801 1317.8 538.401 1327.4 536.001C1304.6 500.601 1307 457.401 1292 419.601C1279.4 387.801 1254.8 356.601 1218.2 354.201C1181 351.801 1151 377.601 1135.4 409.401C1116.8 446.601 1119.2 491.001 1098.8 527.601C1107.8 525.801 1116.8 524.601 1125.8 522.801C1107.2 486.801 1115.6 444.201 1098.2 408.201C1083.2 377.601 1052.6 354.201 1017.2 365.001C984.2 374.601 970.4 407.601 962.6 438.201C951.2 483.201 941.6 528.201 930.8 573.201C940.4 571.401 950 569.601 960.2 568.401C956.6 526.401 944 486.201 924.8 449.001C909.2 419.001 883.4 372.801 843.2 377.001C803.6 381.201 788.6 429.801 776 460.401C758.6 502.401 745.4 546.201 735.8 590.601C745.4 588.801 755 587.001 765.2 585.801C736.4 527.001 760.4 437.001 695 398.001C668.6 382.401 636.2 386.001 611.6 402.801C587 420.201 571.4 448.401 560.6 476.001C543.2 519.201 530.6 564.201 515.6 608.001C525.2 607.401 534.2 606.201 543.8 605.601C537.8 558.801 527 513.201 510.8 469.401C498.8 435.801 483.2 398.001 441.2 399.201C401.6 400.401 374 431.001 360.2 465.801C342.2 510.201 329 557.001 314 602.601C323.6 602.601 333.2 602.601 342.2 602.601C340.4 560.601 334.4 519.201 323 478.401C318.8 463.401 315.2 444.801 303.8 433.401C290.6 420.201 270.8 422.601 254.6 428.601C192.2 450.801 143.6 504.801 125.6 568.401C135.2 566.601 144.8 564.801 155 563.601C148.4 500.601 132.8 439.401 109.4 380.601C106.4 372.801 94.9997 373.401 88.3997 376.401C-16.0003 422.001 -89.8003 521.001 -103.6 632.001C-105.4 646.401 -76.0003 642.201 -74.2003 629.601Z" fill="#F8F8FF"/>
</g>
<mask id="mask3_2009_1232" style="mask-type:luminance" maskUnits="userSpaceOnUse" x="-52" y="-709" width="2382" height="2382">
<path d="M1139 1673C1796.77 1673 2330 1139.77 2330 482C2330 -175.771 1796.77 -709 1139 -709C481.229 -709 -52 -175.771 -52 482C-52 1139.77 481.229 1673 1139 1673Z" fill="white"/>
</mask>
<g mask="url(#mask3_2009_1232)">
<path d="M-19.6004 862.999C-18.4004 802.399 4.3996 743.599 45.1996 698.599C49.9996 693.199 55.3996 687.199 61.9996 682.999C67.9996 678.799 73.3996 675.799 78.1996 682.399C87.1996 695.599 91.9996 713.599 96.7996 728.599C107.6 760.999 113 795.199 114.8 829.399C115.4 837.199 134 851.599 140 841.999C173 792.799 178.4 702.799 249.2 690.799C263 688.399 275 691.399 283.4 703.399C293 718.399 296.6 736.999 300.8 754.399C311.6 795.199 323 836.599 333.8 877.399C335.6 883.999 341 888.799 347 891.199C351.2 892.999 359 894.199 360.2 888.199C371 814.399 413 746.599 475.4 705.199C485.6 697.999 515 676.399 528.2 684.799C534.8 688.999 537.8 702.199 539.6 708.799C542.6 718.999 545.6 729.799 548.6 740.599C561.2 787.399 572 834.799 581 882.199C582.2 888.799 601.4 905.599 606.2 894.799C620 862.399 633.8 829.999 647 796.999C657.8 770.599 667.4 741.199 687.8 720.799C695 713.599 707 703.999 718.4 708.199C729.8 712.399 738.2 730.999 744.2 740.599C760.4 766.999 773 796.399 782.6 825.799C785 832.999 804.2 845.599 807.8 833.599C816.8 802.399 827 771.199 839.6 741.199C846.2 725.599 852.8 709.999 860 694.399C863 688.399 865.4 681.799 869.6 676.999C875.6 669.799 877.4 672.199 881.6 678.799C917 730.399 942.8 788.599 957.8 849.799C959 855.799 978.2 873.799 983 862.399C997.4 829.999 1011.8 797.599 1026.2 765.199C1033.4 748.999 1040.6 732.799 1047.8 716.599C1053.8 702.799 1059.2 688.999 1068.2 676.999C1071.8 672.199 1076 667.999 1080.8 664.399C1086.8 660.799 1090.4 658.999 1092.8 665.599C1098.8 681.199 1103.6 697.399 1108.4 713.599C1117.4 745.999 1124.6 778.999 1129.4 812.599C1130.6 820.999 1154.6 835.999 1155.8 823.399C1158.2 787.399 1161.8 751.399 1168.4 715.399C1171.4 699.199 1173.8 682.999 1178.6 667.399C1182.2 655.999 1187.6 642.199 1199 636.199C1226 621.799 1242.8 669.199 1250 686.599C1263.8 718.999 1275.2 752.599 1283.6 786.799C1285.4 793.999 1307 811.399 1310 797.599C1322.6 732.199 1352.6 672.199 1397 622.399C1389.2 619.999 1382 617.599 1374.2 615.199C1404.2 660.199 1420.4 712.999 1421 766.999C1421 775.999 1443.8 789.799 1447.4 777.799C1454 752.599 1464.8 728.599 1479.2 706.399C1492.4 686.599 1511.6 660.199 1533.8 651.199C1541 648.199 1542.2 649.999 1545.8 656.599C1548.8 662.599 1550.6 669.199 1553 675.199C1557.8 688.399 1562.6 702.199 1567.4 715.999C1577 745.999 1585.4 775.999 1592.6 806.599C1594.4 813.799 1617.2 831.199 1619 817.399C1628 746.599 1658.6 680.599 1707.2 627.799C1699.4 625.399 1692.2 622.999 1684.4 620.599C1721 667.399 1744.4 723.199 1751.6 781.999C1752.8 790.399 1774.4 805.399 1778 792.799C1796 721.999 1832 657.799 1883 606.199C1874.6 602.599 1866.8 599.599 1858.4 595.999C1883 643.399 1897.4 694.399 1900.4 747.799C1901 754.999 1920.8 770.599 1925.6 760.399C1938.2 736.399 1950.8 712.399 1963.4 687.799C1974.8 665.599 1985 639.199 2000.6 619.399C2003.6 615.799 2007.2 611.599 2010.8 609.199C2012.6 607.999 2014.4 606.799 2016.2 606.199C2019.2 605.599 2019.2 605.599 2020.4 606.199C2023.4 608.599 2025.2 617.599 2026.4 621.199C2028.8 627.799 2031.2 633.799 2033 640.399C2041.4 665.599 2047.4 691.999 2051.6 718.399C2052.8 724.999 2072 741.799 2076.8 730.999C2086.4 709.999 2096.6 689.599 2107.4 669.199C2118.2 648.799 2128.4 627.199 2141.6 608.599C2142.8 606.799 2147.6 600.199 2148.8 600.199C2150.6 600.199 2157.2 613.399 2157.8 615.199C2163.2 624.799 2168 634.399 2172.2 643.999C2181.2 664.999 2188.4 686.599 2193.2 708.799C2194.4 715.399 2200.4 720.199 2206.4 722.599C2210 723.799 2219 725.599 2219.6 719.599C2224.4 668.599 2253.2 622.399 2297 595.999C2289.2 592.399 2282 588.199 2274.2 584.599C2292.8 621.799 2304.8 661.399 2310.2 702.799C2311.4 710.599 2328.8 724.399 2335.4 715.399C2355.8 687.799 2376.8 660.799 2397.2 633.199C2404.4 623.599 2380.4 606.199 2372.6 615.799C2352.2 643.399 2331.2 670.399 2310.8 697.999C2319.2 702.199 2327.6 706.399 2336 710.599C2330.6 667.399 2318 625.999 2298.8 586.999C2295.8 580.399 2284.4 570.799 2276 575.599C2229.8 603.799 2198.6 652.999 2193.2 706.999C2202.2 710.599 2210.6 714.199 2219.6 717.799C2213.6 690.199 2204.6 663.199 2192.6 637.399C2183 616.999 2169.2 582.799 2144 579.199C2132.6 577.399 2124.2 583.399 2118.2 591.799C2109.8 603.799 2103.2 616.999 2096 630.199C2081 657.799 2066.6 685.999 2053.4 714.199C2061.8 718.399 2070.2 722.599 2078.6 726.799C2073.2 694.999 2065.4 663.199 2054.6 632.599C2046.8 609.799 2031.8 576.199 2001.2 583.999C1974.8 590.599 1962.8 625.999 1951.4 647.599C1934.6 679.399 1918.4 711.199 1901.6 743.599C1910 747.799 1918.4 751.999 1926.8 756.199C1923.8 700.999 1908.2 647.599 1883 598.999C1879.4 591.799 1866.2 580.999 1858.4 588.799C1806.8 642.199 1769.6 708.199 1751.6 780.199C1760.6 783.799 1769 787.399 1778 790.999C1770.2 727.999 1745 667.999 1706 618.199C1701.8 612.799 1689.8 603.799 1683.2 610.999C1634 664.399 1602.2 732.799 1593.2 804.799C1602.2 808.399 1610.6 811.999 1619.6 815.599C1611.2 778.399 1601 742.399 1588.4 706.399C1578.8 679.399 1569.8 636.199 1536.8 628.999C1507.4 622.399 1480.4 656.599 1464.2 676.999C1443.8 703.399 1430 733.399 1421.6 765.199C1430.6 768.799 1439 772.399 1448 775.999C1446.8 717.799 1428.2 661.399 1395.8 612.799C1391.6 606.799 1379.6 598.399 1373 605.599C1328 656.599 1297.4 718.399 1284.2 785.599C1293.2 789.199 1301.6 792.799 1310.6 796.399C1299.8 754.399 1286 713.599 1267.4 673.999C1254.8 646.999 1232.6 613.999 1199 612.199C1164.2 610.399 1153.4 648.799 1148 675.799C1139 720.799 1133 765.799 1130 811.399C1139 814.999 1147.4 818.599 1156.4 822.199C1150.4 781.399 1141.4 741.799 1129.4 702.799C1121 676.399 1106.6 628.999 1068.8 641.599C1055.6 645.799 1046 657.799 1038.8 669.799C1028 687.799 1020.8 708.199 1012.4 727.399C995 766.999 977 806.599 959.6 846.199C968 850.399 976.4 854.599 984.8 858.799C975.2 820.999 962.6 783.799 945.2 748.999C937.4 732.799 928.4 717.199 919.4 701.599C910.4 686.599 900.8 667.999 885.8 657.199C873.8 648.799 858.2 646.399 847.4 658.399C836 670.999 830 691.399 823.4 706.999C807.2 744.799 793.4 783.199 782.6 822.199C791 824.599 799.4 827.599 807.8 829.999C796.4 793.999 780.2 759.799 759.2 727.999C743.6 703.999 718.4 676.999 686.6 688.999C657.8 699.799 644 732.799 632.6 758.599C615.8 798.799 599 838.399 582.2 878.599C590.6 882.799 599 886.999 607.4 891.199C599.6 847.999 590 805.399 578.6 762.799C570.2 730.999 564.8 685.399 533 667.999C501.2 650.599 464.6 676.999 440 696.199C413.6 716.599 390.8 741.199 373.4 769.399C353 801.799 339.8 838.399 334.4 875.599C343.4 879.199 351.8 882.799 360.8 886.399C348.2 838.999 335.6 790.999 322.4 743.599C312.8 708.199 293 672.799 252.2 669.199C219.2 666.199 186.8 687.799 169.4 714.199C146.6 748.999 139.4 791.599 116.6 826.399C125 830.599 133.4 834.799 141.8 838.999C139.4 796.999 131 755.599 116 715.999C105.8 688.999 83.5996 643.399 46.3996 661.399C31.3996 668.599 18.7996 684.799 8.59961 697.999C-2.80039 712.399 -11.8004 727.999 -19.6004 744.199C-35.8004 777.799 -44.8004 814.399 -45.4004 851.599C-45.4004 858.799 -40.0004 864.199 -34.0004 867.199C-31.0004 867.199 -19.6004 870.199 -19.6004 862.999Z" fill="#F8F8FF"/>
</g>
<mask id="mask4_2009_1232" style="mask-type:luminance" maskUnits="userSpaceOnUse" x="-52" y="-709" width="2382" height="2382">
<path d="M1139 1673C1796.77 1673 2330 1139.77 2330 482C2330 -175.771 1796.77 -709 1139 -709C481.229 -709 -52 -175.771 -52 482C-52 1139.77 481.229 1673 1139 1673Z" fill="white"/>
</mask>
<g mask="url(#mask4_2009_1232)">
<path d="M40.4 1076.6C48.8 1019.6 82.4 966.803 129.8 933.803C141.2 926.003 154.4 917.003 168.2 913.403C177.2 911.003 179 913.403 183.2 921.203C186.8 928.403 190.4 935.603 193.4 943.403C207.2 976.403 215.6 1010.6 219.2 1046C220.4 1055 240.2 1064.6 246.8 1056.8C259.4 1041.2 268.4 1023.2 278 1005.8C287 989.003 297.8 971.003 315.8 962.603C338.6 951.803 359.6 965.603 371 986.003C385.4 1011.2 386.6 1041.2 387.8 1068.8C388.4 1077.2 410 1088.6 415.4 1079.6C429.8 1055 444.2 1029.8 461 1007C478.4 983.603 500.6 959.003 527 946.403C554.6 933.803 578 948.203 591.2 973.403C605.6 1002.2 605 1035.8 604.4 1067C604.4 1075.4 628.4 1086.8 632 1077.8C642.8 1047.8 655.4 1019 669.8 990.803C677.6 976.403 685.4 962.603 693.8 948.803C698.6 941.003 709.4 918.203 720.8 918.803C719 918.803 722 920.003 723.2 921.803C725 924.203 726.2 927.203 727.4 930.203C730.4 936.803 732.8 944.003 735.2 950.603C740.6 966.203 744.8 982.403 748.4 998.603C755.6 1031 758.6 1064.6 758.6 1097.6C758.6 1106 784.4 1117.4 786.2 1108.4C794 1071.2 806.6 1035.2 824.6 1001.6C841.4 969.803 863 936.203 890.6 912.803C897.2 907.403 906.2 900.203 915.2 900.203C923.6 900.203 929 908.003 933.2 914.003C944.6 929.003 953.6 946.403 962 963.203C980 999.203 992.6 1038.2 999.8 1077.8C1001 1084.4 1025 1098.8 1027.4 1088.6C1037 1042.4 1053.8 977.603 1110.8 972.203C1137.2 969.803 1146.8 995.603 1155.8 1016C1168.4 1045.4 1181.6 1074.8 1194.2 1104.2C1196.6 1110.2 1221.2 1122.8 1221.2 1110.8C1222.4 1071.8 1228.4 1032.8 1239.2 995.603C1244.6 977.003 1250.6 959.003 1258.4 941.603C1265 925.403 1272.2 908.003 1283 894.203C1287.8 887.603 1294.4 881.003 1301.6 877.403C1308.2 873.803 1311.2 873.803 1315.4 879.803C1326.2 895.403 1334 914.003 1341.8 931.403C1357.4 966.803 1368.8 1004 1376.6 1041.8C1377.8 1048.4 1401.2 1062.8 1404.2 1052.6C1421.6 991.403 1441.4 922.403 1494.2 882.203C1500.2 877.403 1507.4 872.603 1514.6 869.603C1517 868.403 1520 867.203 1523 866.603C1521.8 865.403 1521.8 865.403 1523 867.203C1526 869.603 1528.4 875.603 1529.6 878.603C1538.6 896.003 1547 914.003 1554.2 932.003C1569.8 970.403 1580.6 1010.6 1586.6 1051.4C1587.8 1059.8 1613 1072.4 1614.2 1060.4C1625 976.403 1682.6 900.203 1760.6 867.203C1753.4 864.203 1746.2 861.203 1738.4 858.803C1768.4 898.403 1784.6 945.803 1787 995.003C1787.6 1002.8 1812.2 1015.4 1814.6 1005.8C1826 959.003 1848.8 915.203 1881.8 880.403C1889.6 872.003 1898 864.803 1906.4 857.603C1908.8 855.803 1911.2 853.403 1913.6 852.203C1915.4 851.003 1917.2 849.803 1919.6 849.203C1917.8 848.003 1916.6 847.403 1914.8 846.203C1914.2 846.803 1919.6 861.203 1919.6 863.003C1926.2 892.403 1933.4 921.803 1940 950.603C1941.2 957.203 1965.2 972.203 1967.6 961.403C1972.4 938.603 1980.2 915.803 1990.4 894.803C2000 875.003 2012 850.403 2030 836.603C2047.4 822.803 2066.6 830.603 2077.4 848.603C2090 869.603 2089.4 896.603 2089.4 920.603C2089.4 928.403 2114.6 940.403 2117 931.403C2129 885.803 2154.8 845.003 2190.8 815.003C2183 812.603 2174.6 809.603 2166.8 807.203C2185.4 836.003 2201 866.603 2213 898.403C2215.4 903.803 2237 916.403 2240 906.803C2246 887.003 2255 867.803 2265.8 849.803C2276.6 832.403 2289.8 813.803 2306.6 801.803C2308.4 800.603 2318.6 796.403 2315 795.203C2318 795.803 2321.6 804.203 2322.8 807.203C2327.6 817.403 2331.8 828.203 2336 838.403C2344.4 861.203 2350.4 884.003 2354.6 907.403C2356.4 917.003 2384 926.003 2382.2 916.403C2376.8 887.003 2369 858.203 2357.6 830.603C2348 807.203 2336 782.003 2307.2 778.403C2282.6 775.403 2263.4 801.803 2250.2 819.203C2233.4 841.403 2220.8 866.603 2212.4 893.603C2221.4 896.603 2230.4 899.003 2239.4 902.003C2226.2 868.403 2210 836.603 2190.2 806.003C2186.6 800.603 2172.2 793.403 2166.2 798.203C2129 829.403 2102 870.803 2089.4 918.203C2098.4 921.803 2108 925.403 2117 929.003C2117 900.203 2115.8 869.003 2098.4 845.003C2084 824.603 2057 809.603 2031.8 810.803C2003 812.603 1986.2 839.603 1973.6 862.403C1958 889.403 1947.2 918.203 1940.6 948.803C1949.6 952.403 1959.2 956.003 1968.2 959.603C1964 941.603 1959.8 923.603 1955.6 905.603C1952 889.403 1949 872.603 1943.6 856.403C1939.4 843.203 1928.6 834.203 1915.4 831.203C1900.4 827.603 1889.6 835.403 1878.8 844.403C1833.2 882.803 1800.8 935.603 1787 993.203C1796 996.803 1805.6 1000.4 1814.6 1004C1812.2 951.203 1793.6 900.803 1761.8 858.803C1758.2 854.003 1746.2 847.403 1739.6 850.403C1656.8 885.203 1597.4 963.203 1585.4 1052C1594.4 1055 1604 1058 1613 1061C1607.6 1025 1598.6 989.603 1586 954.803C1580 937.403 1572.8 920.603 1565 904.403C1558.4 890.603 1551.8 873.803 1540.4 863.003C1514.6 837.803 1483.4 854.003 1460.6 873.803C1439 892.403 1422.8 917.003 1410.2 942.803C1395.2 974.003 1385 1007.6 1375.4 1041.2C1384.4 1044.8 1394 1048.4 1403 1052C1395.8 1017.2 1385.6 983.603 1372.4 950.603C1365.2 933.803 1358 917.003 1349 900.803C1341.8 887.603 1335.2 874.403 1322 866.003C1257.8 824.603 1223 941.003 1211 982.403C1199.6 1022 1193 1062.8 1191.8 1103.6C1200.8 1106 1209.8 1107.8 1218.8 1110.2C1203.8 1076 1190 1040.6 1173.2 1006.4C1160 979.403 1137.2 958.403 1106.6 955.403C1079.6 953.003 1052 965.003 1034.6 986.003C1013 1011.8 1005.2 1045.4 998.6 1077.8C1007.6 1081.4 1017.2 1085 1026.2 1088.6C1019.6 1053.2 1009.4 1019 995 986.003C987.8 969.803 979.4 953.603 970.4 938.603C962 924.803 953.6 910.403 941 899.603C929.6 890.003 914 882.803 899 883.403C882.8 884.003 869 893.603 858.2 905.003C834.2 929.003 814.4 957.203 798.2 986.603C779 1020.8 765.8 1058 757.4 1096.4C766.4 1100 776 1103.6 785 1107.2C785 1066.4 780.2 1026.2 770 987.203C762.2 957.803 753.8 915.203 720.8 903.203C684.8 890.603 666.8 932.603 652.4 957.803C633.2 992.003 616.4 1028 603.2 1065.2C612.2 1068.8 621.8 1072.4 630.8 1076C631.4 1039.4 631.4 999.803 610.4 968.003C593.6 942.203 563 921.803 531.2 923.003C496.4 924.203 467 953.003 446 977.603C422.6 1004.6 404.6 1035.8 387.2 1066.4C396.2 1070 405.8 1073.6 414.8 1077.2C413 1043.6 410.6 1008.2 390.2 980.003C373.4 956.603 344 938.603 314.6 939.803C259.4 942.203 247.4 1008.2 218 1043.6C227 1047.2 236.6 1050.8 245.6 1054.4C241.4 1011.8 230 970.403 211.4 932.003C203.6 916.403 194 902.603 177.2 896.003C159.8 889.403 143 895.403 127.4 903.203C65 935.003 21.2 998.003 11 1067C11 1077.2 38.6 1088.6 40.4 1076.6Z" fill="#F8F8FF"/>
</g>
<mask id="mask5_2009_1232" style="mask-type:luminance" maskUnits="userSpaceOnUse" x="-52" y="-709" width="2382" height="2382">
<path d="M1139 1673C1796.77 1673 2330 1139.77 2330 482C2330 -175.771 1796.77 -709 1139 -709C481.229 -709 -52 -175.771 -52 482C-52 1139.77 481.229 1673 1139 1673Z" fill="white"/>
</mask>
<g mask="url(#mask5_2009_1232)">
<path d="M257.6 1332.2C260.6 1278.8 280.4 1227.8 312.8 1185.8C329 1164.8 348.8 1145.6 370.4 1130.6C381.8 1122.8 393.8 1115.6 406.4 1109.6C409.4 1107.8 413 1106.6 416.6 1105.4C417.8 1104.8 420.8 1104.8 421.4 1104.2C422 1104.2 422.6 1104.2 423.2 1103.6C420.2 1101.8 417.8 1100.6 414.8 1098.8C416.6 1097.6 422.6 1115.6 423.2 1117.4C433.4 1155.8 441.2 1195.4 450.2 1234.4C451.4 1238.6 474.8 1250.6 477.2 1246.4C503.6 1203.2 534.8 1154 584 1135.4C597.2 1130.6 609.2 1128.8 623 1129.4C627.8 1130.6 627.2 1130 622.4 1128.8C623 1129.4 623.6 1130 624.2 1130.6C626.6 1134.2 629 1137.8 630.8 1141.4C633.8 1147.4 636.2 1154 638.6 1160.6C649.4 1192.4 655.4 1225.4 656 1259.6C656 1266.2 683 1274 683 1272.2C689 1220 738.8 1187.6 786.8 1178.6C799.4 1176.2 813.2 1175 825.8 1176.2C828.2 1176.2 830 1176.8 832.4 1176.8C837.2 1178 837.8 1178 834.2 1176.8C837.2 1179.2 839 1182.2 841.4 1185.8C845 1191.8 848 1199 850.4 1206.2C861.8 1240.4 869.6 1275.8 873.2 1311.8C873.8 1317.2 899 1328 900.2 1324.4C916.4 1269.2 938.6 1201.4 1002.8 1188.2C1013.6 1185.8 1028 1184 1037.6 1191.2C1047.2 1198.4 1053.8 1209.2 1058.6 1220C1070 1244 1073.6 1271 1076 1296.8C1076.6 1302.8 1102.4 1312.4 1103 1309.4C1107.2 1284.2 1115 1259 1126.4 1236.2C1136.6 1214.6 1150.4 1189.4 1169.6 1174.4C1174.4 1170.8 1179.8 1167.8 1185.8 1166.6C1188.8 1166 1191.8 1166 1195.4 1166C1193.6 1164.2 1193 1164.2 1194.8 1165.4C1196 1166.6 1197.2 1167.2 1198.4 1168.4C1207.4 1176.2 1213.4 1187 1219.4 1197.2C1232.6 1221.2 1242.2 1247 1248.2 1274C1249.4 1278.2 1274.6 1289 1275.2 1286C1283 1254.2 1293.8 1223 1308.2 1193.6C1321.4 1165.4 1337 1135.4 1356.8 1111.4C1359.2 1109 1361.6 1106 1364 1104.2C1365.8 1103 1368.2 1101.8 1370.6 1101.2C1376 1100.6 1374.2 1099.4 1365.8 1097C1365.8 1098.2 1371.2 1102.4 1371.8 1103.6C1374.8 1107.2 1377.8 1110.8 1380.8 1114.4C1389.8 1126.4 1397.6 1139 1404.2 1152.2C1418 1180.4 1425.8 1211.6 1427.6 1243.4C1427.6 1248.8 1453.4 1260.2 1454.6 1256C1473.2 1205.6 1501.4 1154.6 1540.4 1117.4C1542.8 1115 1545.8 1112.6 1548.8 1110.8C1550 1110.2 1551.2 1109.6 1552.4 1109.6C1557.8 1109 1554.2 1106.6 1542.8 1104.2C1542.8 1106 1547 1109.6 1548.2 1111.4C1550 1114.4 1551.8 1117.4 1553 1119.8C1559.6 1132.4 1565.6 1145.6 1569.8 1159.4C1578.2 1187 1581.8 1215.2 1580 1244C1579.4 1249.4 1605.2 1260.8 1607 1256.6C1626.8 1214 1650.8 1172.6 1680.2 1136C1683.2 1131.8 1686.8 1128.2 1690.4 1124.6C1692.8 1122.8 1695.2 1121 1698.2 1119.2C1700 1118.6 1703.6 1118 1704.8 1117.4C1707.2 1117.4 1706.6 1116.8 1703.6 1115.6C1700.6 1113.8 1700 1113.8 1703 1116.2C1704.2 1118.6 1706.6 1120.4 1708.4 1122.8C1711.4 1127 1714.4 1131.8 1717.4 1136.6C1729.4 1157.6 1736.6 1180.4 1739.6 1204.4C1740.2 1209.8 1765.4 1221.2 1766.6 1217C1782.8 1166.6 1815.8 1122.8 1860.2 1094C1851.2 1089.8 1842.2 1086.2 1833.2 1082C1850 1109.6 1860.2 1140.2 1863.8 1172C1864.4 1176.8 1888.4 1189.4 1890.8 1184.6C1899.8 1167.2 1910 1151 1920.8 1134.8C1930.4 1121 1941.2 1100.6 1957.4 1093.4C1959.2 1092.8 1961 1092.2 1962.8 1091.6C1963.4 1091.6 1964.6 1091 1965.2 1091C1962.8 1089.8 1960.4 1088.6 1958 1087.4C1958 1087.4 1965.2 1097.6 1965.8 1098.8C1970.6 1106.6 1974.2 1114.4 1977.8 1122.8C1985.6 1140.2 1991 1158.8 1994 1178C1994.6 1182.2 2018 1193.6 2021 1190C2045.6 1155.2 2058.2 1101.8 2103.2 1086.2C2114 1082.6 2126 1080.8 2137.4 1082.6C2148.8 1084.4 2156 1091 2162.6 1100C2175.8 1118.6 2180 1142.6 2174 1164.8C2172.2 1170.2 2200.4 1180.4 2201 1177.4C2217.2 1118.6 2160.8 1068.8 2105 1067.6C2076.8 1067 2053.4 1081.4 2036.6 1103.6C2019.8 1126.4 2009.6 1153.4 1994 1176.2C2003 1180.4 2012 1184 2021 1188.2C2016.8 1164.8 2009.6 1142 1998.8 1121C1988 1100 1974.8 1083.2 1950.2 1077.8C1928.6 1072.4 1914.8 1092.2 1903.4 1107.2C1888.4 1127.6 1875.2 1149.2 1863.2 1171.4C1872.2 1175.6 1881.2 1179.8 1890.2 1184C1886.6 1151 1876.4 1120.4 1859 1092.2C1856 1087.4 1837.4 1076.6 1832 1080.2C1787.6 1109.6 1754.6 1152.8 1738.4 1203.2C1747.4 1207.4 1756.4 1211.6 1765.4 1215.8C1761.8 1187.6 1752.8 1160 1737.2 1136C1730 1125.2 1722.2 1116.8 1710.8 1110.8C1700.6 1105.4 1687.4 1099.4 1676 1102.4C1664.6 1105.4 1656.2 1116.2 1649 1125.2C1640 1137.2 1631 1149.8 1622.6 1162.4C1605.8 1187.6 1591.4 1214.6 1578.8 1242.2C1587.8 1246.4 1596.8 1250.6 1605.8 1254.8C1608.2 1222.4 1603.4 1189.4 1592 1158.8C1581.8 1130.6 1566.8 1098.2 1533.8 1092.8C1518.8 1090.4 1509.8 1103.6 1500.8 1113.2C1490 1125.8 1479.8 1138.4 1470.8 1152.2C1452.2 1179.8 1437.2 1209.2 1425.8 1240.4C1434.8 1244.6 1443.8 1248.8 1452.8 1253C1450.4 1198.4 1428.8 1143.2 1390.4 1104.2C1380.8 1094.6 1368.2 1087.4 1355.6 1084.4C1342.4 1081.4 1333.4 1088 1325.6 1097.6C1307.6 1121 1292.6 1147.4 1280 1174.4C1265.6 1205 1254.2 1236.8 1245.8 1269.8C1254.8 1274 1263.8 1277.6 1272.8 1281.8C1265.6 1250 1254.2 1217.6 1235.6 1190.6C1220.6 1169 1194.8 1149.2 1167.8 1148.6C1138.4 1148 1119.8 1180.4 1106.6 1202.6C1090.4 1230.8 1079.6 1262 1073.6 1293.8C1082.6 1298 1091.6 1302.2 1100.6 1306.4C1096.4 1260.8 1087.4 1211.6 1045.4 1185.8C1023.2 1172.6 996.8 1165.4 971 1172C945.8 1178.6 924.2 1194.8 909.2 1215.8C889.4 1243.4 879.8 1276.4 870.8 1308.2C879.8 1312.4 888.8 1316.6 897.8 1320.8C894.2 1289 888.2 1257.2 878.6 1226.6C874.4 1213.4 870.8 1199.6 862.4 1188.2C854 1177.4 842 1170.2 829.4 1164.8C785.6 1146.8 728 1163 692 1191.2C671.6 1207.4 657.2 1229.6 654.2 1256C663.2 1260.2 672.2 1264.4 681.2 1268.6C680.6 1239.2 676.4 1209.8 668 1181.6C663.8 1168.4 660.2 1154 652.4 1142.6C645.2 1131.8 635 1124.6 623 1119.2C576.2 1097.6 528.2 1125.2 496.4 1160C477.2 1181 461.6 1205.6 446.6 1229.6C455.6 1233.8 464.6 1237.4 473.6 1241.6C464.6 1202.6 456.8 1163 446.6 1124.6C442.4 1109.6 435.2 1100 421.4 1092.8C414.8 1089.2 407 1086.2 399.2 1085.6C390.8 1085 383.6 1088.6 376.4 1092.2C322.4 1118 278.6 1163 252.8 1217C237.8 1248.2 228.8 1281.8 227 1316C230 1326.8 257.6 1333.4 257.6 1332.2Z" fill="#F8F8FF"/>
</g>
</g>
</svg>
