<svg xmlns="http://www.w3.org/2000/svg" width="48" height="44" viewBox="0 0 48 44" fill="none"><g clip-path="url(#clip0_72_16)"><path d="M19.0199 39.1423C18.5681 39.5933 17.9801 39.8188 17.3922 39.8188C16.8042 39.8188 16.2013 39.5875 15.7483 39.1272L2.36105 25.5222C1.45278 24.5993 1.45278 23.1032 2.36105 22.1814L8.65718 15.7834C9.09302 15.3406 9.68442 15.0918 10.301 15.0918C10.9176 15.0918 11.509 15.3406 11.9448 15.7834L17.3899 21.3166L31.7941 6.63751C28.5133 4.30104 24.5188 2.92822 20.2085 2.92822C9.0484 2.92939 0 12.123 0 23.4647C0 34.8065 9.0484 44.0001 20.2085 44.0001C31.3686 44.0001 40.417 34.8053 40.417 23.4647C40.417 21.7246 40.203 20.0356 39.8027 18.4233L19.0199 39.1423Z" fill="#D66916"></path><path d="M17.3922 24.6596L10.301 17.4538L4.00488 23.8517L17.3922 37.4556L43.6051 11.3232L40.3049 1.31006L17.3922 24.6596Z" fill="url(#paint0_linear_72_16)"></path><path d="M48.0002 0L46.0613 0.10578L47.0233 3.03857L48.0002 0Z" fill="url(#paint1_linear_72_16)"></path><path d="M45.6757 0.126709L41.251 0.369655L44.6999 10.2677L46.8287 3.64304L45.6757 0.126709Z" fill="url(#paint2_linear_72_16)"></path></g><defs><linearGradient id="paint0_linear_72_16" x1="4.00488" y1="19.3834" x2="43.6051" y2="19.3834" gradientUnits="userSpaceOnUse"><stop stop-color="#2163A1"></stop><stop offset="1" stop-color="#0F2E4D"></stop></linearGradient><linearGradient id="paint1_linear_72_16" x1="49.5285" y1="-0.208073" x2="45.6167" y2="2.05035" gradientUnits="userSpaceOnUse"><stop stop-color="#2163A1"></stop><stop offset="1" stop-color="#0F2E4D"></stop></linearGradient><linearGradient id="paint2_linear_72_16" x1="50.2811" y1="0.961328" x2="40.4992" y2="6.61083" gradientUnits="userSpaceOnUse"><stop stop-color="#2163A1"></stop><stop offset="1" stop-color="#0F2E4D"></stop></linearGradient><clipPath id="clip0_72_16"><rect width="48" height="44" fill="white"></rect></clipPath></defs></svg>