<svg width="102" height="45" viewBox="0 0 102 45" fill="none" xmlns="http://www.w3.org/2000/svg">
<path d="M39.915 25.2188H47.1336L43.445 44.5919H39.7825L42.8343 28.7685H39.252L39.9157 25.2188H39.915Z" fill="#F8F8FF"/>
<path d="M48.8579 43.5089C47.7435 42.5159 47.186 41.1424 47.186 39.3907C47.186 38.849 47.2392 38.2798 47.3454 37.6838L48.4605 31.8855C48.8671 29.6636 49.7384 27.9293 51.0745 26.6831C52.4105 25.4369 54.1482 24.8135 56.2897 24.8135H57.3778C59.3061 24.8135 60.832 25.306 61.9555 26.2904C63.079 27.2754 63.6408 28.6431 63.6408 30.3956C63.6408 30.8476 63.5784 31.4255 63.4552 32.1299L62.3671 37.955C61.9427 40.1588 61.0622 41.8838 59.7262 43.1299C58.3901 44.3761 56.6432 44.9996 54.4847 44.9996H53.3966C51.486 44.9996 49.9729 44.5027 48.8586 43.5097L48.8579 43.5089ZM50.9009 38.9568C50.9009 39.8059 51.1354 40.4242 51.6043 40.8126C52.0726 41.201 52.803 41.3948 53.794 41.3948H54.5371C55.7577 41.3948 56.6956 41.1063 57.3502 40.5277C58.0047 39.9498 58.456 39.0103 58.7039 37.7099L59.7658 32.101C59.8544 31.6859 59.8983 31.2519 59.8983 30.8006C59.8983 29.9703 59.6638 29.3693 59.1949 28.999C58.7259 28.6287 57.987 28.4435 56.979 28.4435H56.2628C55.0238 28.4435 54.0774 28.7277 53.4228 29.2969C52.7682 29.8661 52.3255 30.8006 52.096 32.101L51.0348 37.7099C50.9462 38.2154 50.9023 38.6313 50.9023 38.956L50.9009 38.9568Z" fill="#F8F8FF"/>
<path d="M66.1611 43.5089C65.0468 42.5159 64.4893 41.1424 64.4893 39.3907C64.4893 38.849 64.5424 38.2798 64.6486 37.6838L65.7637 31.8855C66.1703 29.6636 67.0416 27.9293 68.3777 26.6831C69.7137 25.4369 71.4514 24.8135 73.5929 24.8135H74.681C76.6093 24.8135 78.1352 25.306 79.2587 26.2904C80.3822 27.2754 80.944 28.6431 80.944 30.3956C80.944 30.8476 80.8817 31.4255 80.7584 32.1299L79.6703 37.955C79.246 40.1588 78.3654 41.8838 77.0294 43.1299C75.6933 44.3761 73.9464 44.9996 71.7879 44.9996H70.6998C68.7893 44.9996 67.2761 44.5027 66.1618 43.5097L66.1611 43.5089ZM68.2041 38.9568C68.2041 39.8059 68.4386 40.4242 68.9076 40.8126C69.3758 41.201 70.1062 41.3948 71.0972 41.3948H71.8403C73.0609 41.3948 73.9988 41.1063 74.6534 40.5277C75.308 39.9498 75.7592 39.0103 76.0072 37.7099L77.0691 32.101C77.1576 31.6859 77.2015 31.2519 77.2015 30.8006C77.2015 29.9703 76.967 29.3693 76.4981 28.999C76.0291 28.6287 75.2903 28.4435 74.2822 28.4435H73.566C72.327 28.4435 71.3806 28.7277 70.726 29.2969C70.0715 29.8661 69.6287 30.8006 69.3992 32.101L68.338 37.7099C68.2495 38.2154 68.2055 38.6313 68.2055 38.956L68.2041 38.9568Z" fill="#F8F8FF"/>
<path d="M83.4628 43.5089C82.3485 42.5159 81.791 41.1424 81.791 39.3907C81.791 38.849 81.8441 38.2798 81.9504 37.6838L83.0654 31.8855C83.4721 29.6636 84.3434 27.9293 85.6794 26.6831C87.0155 25.4369 88.7532 24.8135 90.8947 24.8135H91.9828C93.9111 24.8135 95.4369 25.306 96.5605 26.2904C97.684 27.2754 98.2458 28.6431 98.2458 30.3956C98.2458 30.8476 98.1834 31.4255 98.0602 32.1299L96.9721 37.955C96.5477 40.1588 95.6672 41.8838 94.3311 43.1299C92.9951 44.3761 91.2482 44.9996 89.0897 44.9996H88.0016C86.091 44.9996 84.5779 44.5027 83.4636 43.5097L83.4628 43.5089ZM85.5059 38.9568C85.5059 39.8059 85.7404 40.4242 86.2093 40.8126C86.6776 41.201 87.4079 41.3948 88.399 41.3948H89.1421C90.3627 41.3948 91.3006 41.1063 91.9552 40.5277C92.6097 39.9498 93.061 39.0103 93.3089 37.7099L94.3708 32.101C94.4594 31.6859 94.5033 31.2519 94.5033 30.8006C94.5033 29.9703 94.2688 29.3693 93.7998 28.999C93.3309 28.6287 92.592 28.4435 91.584 28.4435H90.8678C89.6288 28.4435 88.6823 28.7277 88.0278 29.2969C87.3732 29.8661 86.9305 30.8006 86.7009 32.101L85.6398 37.7099C85.5512 38.2154 85.5073 38.6313 85.5073 38.956L85.5059 38.9568Z" fill="#F8F8FF"/>
<path d="M43.8435 0H47.207L49.8444 3.86002H46.0637L45.3383 2.24426L43.976 3.86002H39.7334L43.8435 0Z" fill="#F8F8FF"/>
<path d="M39.7889 5.16211H51.0865L50.405 8.86518H43.3054L42.8216 11.4009H49.2178L48.5363 14.9912H42.1401L41.6343 17.5717H48.8437L48.1403 21.2972H36.7109L39.7882 5.16211H39.7889Z" fill="#F8F8FF"/>
<path d="M55.3278 12.9718L51.8772 5.16211H56.6688L58.5149 9.76274L62.0314 5.16211H67.3727L60.9327 13.0839L64.4931 21.2972H59.7454L57.7895 16.4724L53.9429 21.2972H48.5356L55.3278 12.9718Z" fill="#F8F8FF"/>
<path d="M68.1642 5.16211H72.4061L69.3288 21.2972H65.0869L68.1642 5.16211Z" fill="#F8F8FF"/>
<path d="M77.5496 9.11181H73.0874L73.8348 5.16211H87.0011L86.2537 9.11181H81.8135L79.4836 21.2972H75.2197L77.5496 9.11181Z" fill="#F8F8FF"/>
<path d="M88.2211 20.9736C87.4518 20.5324 86.8546 19.9155 86.4296 19.1221C86.0045 18.3294 85.792 17.4094 85.792 16.3621C85.792 15.8537 85.843 15.3452 85.9457 14.8361L86.6272 11.2682C87.0083 9.29375 87.8138 7.72645 89.045 6.56707C90.2762 5.40769 91.778 4.82764 93.5511 4.82764H96.1226C97.1484 4.82764 98.0459 5.04461 98.8152 5.47857C99.5846 5.91252 100.182 6.52946 100.607 7.3301C101.032 8.13075 101.244 9.04711 101.244 10.0792C101.244 10.5877 101.193 11.0968 101.091 11.6053L100.409 15.1731C100.028 17.1476 99.2226 18.7185 97.9914 19.8858C96.7602 21.0524 95.2584 21.6361 93.4852 21.6361H90.9137C89.888 21.6361 88.9904 21.4155 88.2211 20.9743V20.9736ZM90.0998 15.9354C90.0998 16.5487 90.257 16.9979 90.5723 17.2821C90.8875 17.5664 91.382 17.7081 92.0557 17.7081H93.2642C94.1136 17.7081 94.7696 17.4839 95.2314 17.0348C95.6933 16.5856 96.0192 15.8602 96.2097 14.8578L96.8253 11.5814C96.9132 11.1778 96.9571 10.8111 96.9571 10.4821C96.9571 9.88392 96.7956 9.44635 96.4733 9.16935C96.1509 8.89234 95.6522 8.7542 94.9785 8.7542H93.7693C92.9192 8.7542 92.264 8.97479 91.8021 9.41598C91.3402 9.85716 91.0143 10.5797 90.8238 11.5814L90.2082 14.8578C90.1345 15.1868 90.0984 15.5463 90.0984 15.9347L90.0998 15.9354Z" fill="#F8F8FF"/>
<path d="M14.4882 35.1149C14.1439 35.4598 13.6955 35.632 13.2478 35.632C12.8001 35.632 12.3411 35.4555 11.9954 35.1026L1.79792 24.692C1.10652 23.9861 1.10652 22.8412 1.79792 22.1346L6.5938 17.2381C6.92604 16.8989 7.37658 16.7087 7.84625 16.7087C8.31592 16.7087 8.76647 16.8989 9.09871 17.2381L13.2464 21.4728L24.2188 10.2384C21.7203 8.45056 18.6777 7.40039 15.3943 7.40039C6.89204 7.40039 0 14.437 0 23.1168C0 31.7966 6.89204 38.8331 15.3936 38.8331C23.8951 38.8331 30.7871 31.7966 30.7871 23.1168C30.7871 21.7852 30.6242 20.4928 30.3189 19.2582L14.4875 35.1149H14.4882Z" fill="#F8F8FF"/>
<path d="M13.2468 24.0328L7.84519 18.518L3.04932 23.4144L13.2468 33.8257L33.2145 13.8255L30.7003 6.1626L13.2468 24.0328Z" fill="#F8F8FF"/>
<path d="M36.563 5.15869L35.0859 5.2397L35.8184 7.48468L36.563 5.15869Z" fill="#F8F8FF"/>
<path d="M34.792 5.25391L31.4214 5.43978L34.0481 13.0144L35.6704 7.94514L34.792 5.25391Z" fill="#F8F8FF"/>
</svg>
