<svg width="72" height="12" viewBox="0 0 72 12" fill="none" xmlns="http://www.w3.org/2000/svg">
<path d="M6.2069 0L8.12484 3.94953L12.4138 4.58675L9.31035 7.65931L10.0428 12L6.2069 9.94953L2.37104 12L3.10345 7.65931L0 4.58675L4.28897 3.94953L6.2069 0Z" fill="#0062A1"/>
<path d="M35.9999 0L37.9178 3.94953L42.2068 4.58675L39.1033 7.65931L39.8357 12L35.9999 9.94953L32.164 12L32.8964 7.65931L29.793 4.58675L34.0819 3.94953L35.9999 0Z" fill="#0062A1"/>
<path d="M21.1029 0L23.0208 3.94953L27.3098 4.58675L24.2063 7.65931L24.9388 12L21.1029 9.94953L17.267 12L17.9994 7.65931L14.896 4.58675L19.185 3.94953L21.1029 0Z" fill="#0062A1"/>
<path d="M50.8968 0L52.8148 3.94953L57.1037 4.58675L54.0003 7.65931L54.7327 12L50.8968 9.94953L47.061 12L47.7934 7.65931L44.6899 4.58675L48.9789 3.94953L50.8968 0Z" fill="#0062A1"/>
<path d="M65.7933 0L67.7113 3.94953L72.0002 4.58675L68.8968 7.65931L69.6292 12L65.7933 9.94953L61.9575 12L62.6899 7.65931L59.5864 4.58675L63.8754 3.94953L65.7933 0Z" fill="url(#paint0_linear_2009_1254)"/>
<defs>
<linearGradient id="paint0_linear_2009_1254" x1="59.5864" y1="6" x2="72.0002" y2="6" gradientUnits="userSpaceOnUse">
<stop offset="0.5" stop-color="#0062A1"/>
<stop offset="0.5" stop-color="#407699" stop-opacity="0"/>
</linearGradient>
</defs>
</svg>
